<svg xmlns="http://www.w3.org/2000/svg" viewBox="0 0 256 256">
  <rect width="256" height="256" rx="56" fill="#7C3AED"/>
  <path d="M70 80h28c16 0 28 10 28 24 0 10-6 18-14 22l16 34h-20l-14-30h-8v30h-16V80zm16 14v20h10c6 0 10-4 10-10s-4-10-10-10h-10z" fill="#FFFFFF"/>
  <path d="M142 80h20l12 28 12-28h20v80h-16v-46l-14 32h-4l-14-32v46h-16V80z" fill="#FFFFFF"/>
  <circle cx="200" cy="56" r="3" fill="#FFFFFF" opacity="0.4"/>
  <circle cx="56" cy="200" r="3" fill="#FFFFFF" opacity="0.4"/>
  <circle cx="200" cy="200" r="3" fill="#FFFFFF" opacity="0.4"/>
</svg>